<svg xmlns="http://www.w3.org/2000/svg" viewBox="0 0 1024 1024">
  <path d="M453.5 927.2H102.3c-12.2 0-23.4-6.1-30-16.4-6.6-10.3-7.4-23.1-2.3-34.1l351.2-756.8c7.1-15.3 23.5-23.4 40-19.8 16.4 3.6 27.9 17.9 27.9 34.8v756.8c0 19.5-15.9 35.5-35.6 35.5z m-336-45.3h326.3V178.8L117.5 881.9z M920.3 927.2H569.1c-19.6 0-35.6-16-35.6-35.6V134.8c0-16.8 11.5-31.1 27.9-34.8 16.4-3.6 32.9 4.5 40 19.8l351.2 756.8c5.1 11.1 4.3 23.8-2.3 34.1-6.5 10.4-17.8 16.5-30 16.5z m-341.5-45.3h326.3L578.8 178.8v703.1z" fill="#000"/>
</svg>
